<svg width="64" height="64" viewBox="0 0 64 64" fill="none" xmlns="http://www.w3.org/2000/svg">
<rect width="64" height="64" rx="8" fill="#FFE8D1"/>
<path d="M33.95 18.3889C33.95 20.5367 29.1483 22.2778 23.225 22.2778C17.3017 22.2778 12.5 20.5367 12.5 18.3889M33.95 18.3889C33.95 16.2411 29.1483 14.5 23.225 14.5C17.3017 14.5 12.5 16.2411 12.5 18.3889M33.95 18.3889V27.0556C31.5681 27.7689 30.05 28.8479 30.05 30.0556M12.5 18.3889V41.7222C12.5 43.8701 17.3017 45.6111 23.225 45.6111C25.8178 45.6111 28.1957 45.2774 30.05 44.7223V30.0556M30.05 30.0556C30.05 32.2034 34.8517 33.9444 40.775 33.9444C46.6983 33.9444 51.5 32.2034 51.5 30.0556M30.05 30.0556C30.05 27.9078 34.8517 26.1667 40.775 26.1667C46.6983 26.1667 51.5 27.9078 51.5 30.0556M30.05 30.0556V45.6111C30.05 47.7589 34.8517 49.5 40.775 49.5C46.6983 49.5 51.5 47.7589 51.5 45.6111V30.0556M12.5 26.1667C12.5 28.3145 17.3017 30.0556 23.225 30.0556C25.8178 30.0556 28.1957 29.7219 30.05 29.1667M12.5 33.9444C12.5 36.0923 17.3017 37.8333 23.225 37.8333C25.8178 37.8333 28.1957 37.4997 30.05 36.9445M51.5 37.8333C51.5 39.9812 46.6983 41.7222 40.775 41.7222C34.8517 41.7222 30.05 39.9812 30.05 37.8333" stroke="#FF8000" stroke-width="2" stroke-linecap="round" stroke-linejoin="round"/>
</svg>
