<svg width="19" height="20" viewBox="0 0 19 20" fill="none" xmlns="http://www.w3.org/2000/svg">
<path id="Vector" d="M11.6521 12.232C11.6521 12.232 11.8056 12.0785 12.1125 11.7716C12.4194 11.4647 12.5729 10.8775 12.5729 10.0099C12.5729 9.14235 12.2659 8.40165 11.6521 7.78781C11.0383 7.17397 10.2976 6.86705 9.43 6.86705C8.56244 6.86705 7.82174 7.17397 7.2079 7.78781C6.59406 8.40165 6.28714 9.14235 6.28714 10.0099C6.28714 10.8775 6.59406 11.6182 7.2079 12.232C7.82174 12.8458 8.56244 13.1528 9.43 13.1528C10.2976 13.1528 11.0383 12.8458 11.6521 12.232ZM12.8552 6.58468C12.8552 6.58468 13.0905 6.81999 13.5611 7.2906C14.0317 7.76121 14.2671 8.66764 14.2671 10.0099C14.2671 11.3522 13.7964 12.4939 12.8552 13.4351C11.914 14.3763 10.7723 14.847 9.43 14.847C8.08774 14.847 6.946 14.3763 6.00478 13.4351C5.06355 12.4939 4.59294 11.3522 4.59294 10.0099C4.59294 8.66764 5.06355 7.5259 6.00478 6.58468C6.946 5.64346 8.08774 5.17285 9.43 5.17285C10.7723 5.17285 11.914 5.64346 12.8552 6.58468ZM15.2615 4.17843C15.2615 4.17843 15.3167 4.23368 15.4272 4.34417C15.5377 4.45466 15.5929 4.66541 15.5929 4.97642C15.5929 5.28743 15.4825 5.55343 15.2615 5.77441C15.0405 5.9954 14.7745 6.10589 14.4635 6.10589C14.1525 6.10589 13.8865 5.9954 13.6655 5.77441C13.4445 5.55343 13.334 5.28743 13.334 4.97642C13.334 4.66541 13.4445 4.39941 13.6655 4.17843C13.8865 3.95745 14.1525 3.84696 14.4635 3.84696C14.7745 3.84696 15.0405 3.95745 15.2615 4.17843ZM10.3692 2.26939C10.3692 2.26939 10.227 2.27041 9.94255 2.27246C9.65814 2.27451 9.48729 2.27553 9.43 2.27553C9.37271 2.27553 9.05965 2.27348 8.49082 2.26939C7.922 2.2653 7.49027 2.2653 7.19562 2.26939C6.90098 2.27348 6.50608 2.28576 6.01091 2.30622C5.51575 2.32668 5.09425 2.36761 4.7464 2.42899C4.39856 2.49037 4.10597 2.56608 3.86861 2.65611C3.45939 2.8198 3.09927 3.05715 2.78826 3.36816C2.47725 3.67918 2.23989 4.03929 2.0762 4.44852C1.98617 4.68587 1.91047 4.97847 1.84908 5.32631C1.7877 5.67415 1.74678 6.09566 1.72632 6.59082C1.70585 7.08598 1.69358 7.48089 1.68948 7.77553C1.68539 8.07017 1.68539 8.50191 1.68948 9.07073C1.69358 9.63955 1.69562 9.95261 1.69562 10.0099C1.69562 10.0672 1.69358 10.3803 1.68948 10.9491C1.68539 11.5179 1.68539 11.9496 1.68948 12.2443C1.69358 12.5389 1.70585 12.9338 1.72632 13.429C1.74678 13.9242 1.7877 14.3457 1.84908 14.6935C1.91047 15.0413 1.98617 15.3339 2.0762 15.5713C2.23989 15.9805 2.47725 16.3406 2.78826 16.6516C3.09927 16.9627 3.45939 17.2 3.86861 17.3637C4.10597 17.4537 4.39856 17.5294 4.7464 17.5908C5.09425 17.6522 5.51575 17.6931 6.01091 17.7136C6.50608 17.734 6.90098 17.7463 7.19562 17.7504C7.49027 17.7545 7.922 17.7545 8.49082 17.7504C9.05965 17.7463 9.37271 17.7443 9.43 17.7443C9.48729 17.7443 9.80035 17.7463 10.3692 17.7504C10.938 17.7545 11.3697 17.7545 11.6644 17.7504C11.959 17.7463 12.3539 17.734 12.8491 17.7136C13.3442 17.6931 13.7657 17.6522 14.1136 17.5908C14.4614 17.5294 14.754 17.4537 14.9914 17.3637C15.4006 17.2 15.7607 16.9627 16.0717 16.6516C16.3828 16.3406 16.6201 15.9805 16.7838 15.5713C16.8738 15.3339 16.9495 15.0413 17.0109 14.6935C17.0723 14.3457 17.1132 13.9242 17.1337 13.429C17.1541 12.9338 17.1664 12.5389 17.1705 12.2443C17.1746 11.9496 17.1746 11.5179 17.1705 10.9491C17.1664 10.3803 17.1644 10.0672 17.1644 10.0099C17.1644 9.95261 17.1664 9.63955 17.1705 9.07073C17.1746 8.50191 17.1746 8.07017 17.1705 7.77553C17.1664 7.48089 17.1541 7.08598 17.1337 6.59082C17.1132 6.09566 17.0723 5.67415 17.0109 5.32631C16.9495 4.97847 16.8738 4.68587 16.7838 4.44852C16.6201 4.03929 16.3828 3.67918 16.0717 3.36816C15.7607 3.05715 15.4006 2.8198 14.9914 2.65611C14.754 2.56608 14.4614 2.49037 14.1136 2.42899C13.7657 2.36761 13.3442 2.32668 12.8491 2.30622C12.3539 2.28576 11.959 2.27348 11.6644 2.26939C11.3697 2.2653 10.938 2.2653 10.3692 2.26939ZM18.7972 6.11816C18.8381 6.8384 18.8586 8.13565 18.8586 10.0099C18.8586 11.8842 18.8381 13.1814 18.7972 13.9016C18.7153 15.604 18.2079 16.9217 17.2749 17.8548C16.3418 18.7878 15.0241 19.2952 13.3217 19.3771C12.6015 19.418 11.3043 19.4385 9.43 19.4385C7.55574 19.4385 6.2585 19.418 5.53826 19.3771C3.83588 19.2952 2.51817 18.7878 1.58513 17.8548C0.652096 16.9217 0.144656 15.604 0.0628106 13.9016C0.021888 13.1814 0.0014267 11.8842 0.0014267 10.0099C0.0014267 8.13565 0.021888 6.8384 0.0628106 6.11816C0.144656 4.41578 0.652096 3.09807 1.58513 2.16504C2.51817 1.232 3.83588 0.724562 5.53826 0.642717C6.2585 0.601793 7.55574 0.581333 9.43 0.581333C11.3043 0.581333 12.6015 0.601793 13.3217 0.642717C15.0241 0.724562 16.3418 1.232 17.2749 2.16504C18.2079 3.09807 18.7153 4.41578 18.7972 6.11816Z" fill="#FFFEFC"/>
</svg>
