<svg width="20" height="16" viewBox="0 0 20 16" fill="none" xmlns="http://www.w3.org/2000/svg">
<path id="Vector" d="M19.9539 2.01897C19.4056 2.82106 18.7426 3.50446 17.9651 4.0692C17.9733 4.18378 17.9774 4.35565 17.9774 4.58482C17.9774 5.64881 17.8219 6.71075 17.5109 7.77065C17.1999 8.83054 16.7272 9.84747 16.0929 10.8214C15.4586 11.7954 14.7036 12.6568 13.8278 13.4057C12.9521 14.1546 11.8963 14.752 10.6604 15.1981C9.42455 15.6442 8.10275 15.8672 6.69501 15.8672C4.47701 15.8672 2.44725 15.2738 0.605728 14.0871C0.892186 14.1198 1.21138 14.1362 1.56332 14.1362C3.40484 14.1362 5.04583 13.5714 6.48631 12.442C5.62693 12.4256 4.85759 12.1616 4.17827 11.6501C3.49896 11.1386 3.03244 10.4859 2.77872 9.69196C3.04881 9.73289 3.29844 9.75335 3.5276 9.75335C3.87954 9.75335 4.22738 9.70833 4.57113 9.6183C3.65446 9.43006 2.89535 8.97377 2.29379 8.24944C1.69222 7.52511 1.39144 6.68415 1.39144 5.72656V5.67746C1.94799 5.98847 2.54546 6.15625 3.18385 6.1808C2.64367 5.82068 2.21399 5.35007 1.89479 4.76897C1.57559 4.18787 1.416 3.55766 1.416 2.87835C1.416 2.15811 1.59606 1.49107 1.95617 0.877233C2.9465 2.09673 4.15167 3.07273 5.57169 3.80525C6.9917 4.53776 8.51198 4.94494 10.1325 5.02679C10.067 4.71577 10.0343 4.41295 10.0343 4.1183C10.0343 3.02158 10.421 2.0865 11.1945 1.31306C11.9679 0.53962 12.903 0.152903 13.9997 0.152903C15.1455 0.152903 16.1113 0.570312 16.897 1.40513C17.7891 1.23326 18.628 0.914062 19.4138 0.447545C19.1109 1.38877 18.5298 2.11719 17.6705 2.63281C18.4316 2.55097 19.1928 2.34635 19.9539 2.01897Z" fill="#FFFEFC"/>
</svg>
