<svg width="64" height="64" viewBox="0 0 64 64" fill="none" xmlns="http://www.w3.org/2000/svg">
<rect width="64" height="64" rx="8" fill="#FFE8D1"/>
<path d="M35.6855 17.2908C35.7224 17.2443 35.7684 17.2059 35.8206 17.1778C35.8729 17.1496 35.9303 17.1324 35.9894 17.1272C36.0485 17.122 36.108 17.1288 36.1644 17.1473C36.2208 17.1658 36.2728 17.1955 36.3173 17.2348L37.9291 18.6558L32.8557 24.9996H36.2175L39.9031 20.3936L42.7941 22.9433C42.8796 23.0189 42.9322 23.1248 42.9407 23.2386C42.9492 23.3524 42.9129 23.4649 42.8396 23.5523L41.6321 24.9996H45.0341C45.4556 24.3827 45.6369 23.633 45.5441 22.8917C45.4513 22.1504 45.0907 21.4685 44.5301 20.9746L38.0551 15.2642C37.7427 14.9891 37.3775 14.7806 36.9819 14.6514C36.5862 14.5221 36.1683 14.4749 35.7538 14.5126C35.3393 14.5502 34.9368 14.672 34.5709 14.8705C34.205 15.0689 33.8834 15.3398 33.6257 15.6667L26.2704 24.9996H29.6129L35.6855 17.2908ZM39.0001 37.2498C38.652 37.2498 38.3181 37.3881 38.072 37.6342C37.8258 37.8804 37.6875 38.2142 37.6875 38.5623C37.6875 38.9104 37.8258 39.2442 38.072 39.4904C38.3181 39.7365 38.652 39.8748 39.0001 39.8748H42.5001C42.8482 39.8748 43.1821 39.7365 43.4282 39.4904C43.6744 39.2442 43.8126 38.9104 43.8126 38.5623C43.8126 38.2142 43.6744 37.8804 43.4282 37.6342C43.1821 37.3881 42.8482 37.2498 42.5001 37.2498H39.0001ZM18.4373 25.4371C18.4373 25.089 18.5756 24.7552 18.8217 24.509C19.0679 24.2629 19.4017 24.1246 19.7498 24.1246H25.2239L27.3099 21.4996H19.7498C18.7055 21.4996 17.704 21.9144 16.9655 22.6528C16.2271 23.3913 15.8123 24.3928 15.8123 25.4371V43.8124C15.8123 45.3208 16.4115 46.7675 17.4781 47.8341C18.5447 48.9007 19.9914 49.4999 21.4998 49.4999H42.5001C44.0086 49.4999 45.4552 48.9007 46.5218 47.8341C47.5885 46.7675 48.1877 45.3208 48.1877 43.8124V32.4372C48.1877 30.9288 47.5885 29.4821 46.5218 28.4155C45.4552 27.3489 44.0086 26.7496 42.5001 26.7496H19.7498C19.4017 26.7496 19.0679 26.6114 18.8217 26.3652C18.5756 26.1191 18.4373 25.7852 18.4373 25.4371ZM18.4373 43.8124V29.1507C18.8485 29.2959 19.2896 29.3747 19.7498 29.3747H42.5001C44.1906 29.3747 45.5627 30.7467 45.5627 32.4372V43.8124C45.5627 44.6246 45.24 45.4036 44.6657 45.9779C44.0913 46.5522 43.3124 46.8749 42.5001 46.8749H21.4998C20.6876 46.8749 19.9086 46.5522 19.3343 45.9779C18.76 45.4036 18.4373 44.6246 18.4373 43.8124Z" fill="#FF8000"/>
</svg>
